<?xml version="1.0" standalone="no"?>
<!DOCTYPE svg PUBLIC "-//W3C//DTD SVG 20010904//EN" "http://www.w3.org/TR/2001/REC-SVG-20010904/DTD/svg10.dtd">
<svg version="1.0" xmlns="http://www.w3.org/2000/svg"
 width="550.000000pt" height="480.000000pt" viewBox="0 0 550.000000 480.000000"
 preserveAspectRatio="xMidYMid meet">

<g transform="translate(0.000000,480.000000) scale(0.100000,-0.100000)"
fill="#000000" stroke="none">
<path d="M1430 4494 c-68 -24 -100 -59 -100 -110 0 -54 -22 -63 -86 -35 -26
12 -60 21 -77 21 -34 0 -91 -32 -103 -58 -4 -9 -10 -82 -14 -162 -5 -142 -5
-145 -30 -157 -18 -9 -93 -13 -271 -13 l-247 0 -57 30 c-73 39 -123 39 -196 3
-71 -37 -108 -90 -116 -166 -10 -97 45 -193 129 -223 74 -27 174 -10 225 38
21 20 28 20 265 13 251 -8 288 -14 302 -52 7 -16 12 -109 15 -251 1 -53 5 -67
26 -87 35 -36 110 -35 171 1 38 22 49 25 70 16 19 -9 24 -19 24 -50 0 -49 20
-68 89 -83 63 -13 162 1 201 29 33 24 62 84 62 127 0 21 -14 61 -36 100 -42
76 -38 95 21 120 31 13 230 15 1575 15 1684 0 1606 -3 1756 58 37 16 92 44
123 65 124 82 133 122 45 204 -76 71 -209 135 -350 168 l-109 26 -1464 0
c-993 -1 -1479 3 -1513 10 -27 6 -60 19 -74 30 l-25 20 19 52 c49 133 46 198
-12 254 -64 62 -147 78 -238 47z"/>
<path d="M1455 3031 c-83 -22 -125 -63 -125 -124 0 -50 -17 -55 -96 -28 -75
27 -109 22 -150 -20 -29 -30 -29 -32 -34 -177 -5 -140 -6 -147 -28 -158 -13
-7 -120 -14 -268 -18 l-246 -8 -41 29 c-38 25 -51 28 -123 28 -71 0 -85 -3
-121 -27 -117 -78 -123 -267 -10 -349 85 -62 170 -63 257 -3 l52 35 244 -8
c313 -10 293 4 300 -208 5 -162 13 -187 62 -206 35 -13 104 -3 134 20 58 44
98 33 98 -29 0 -21 7 -45 15 -54 34 -34 138 -46 219 -25 63 16 94 46 110 105
12 45 11 56 -4 97 -10 25 -27 61 -38 79 -26 43 -15 70 37 91 37 15 183 17
1583 17 1293 0 1554 2 1608 14 186 40 363 151 363 226 0 40 -54 97 -143 149
-76 45 -110 60 -235 98 l-90 28 -1520 5 c-1466 5 -1521 6 -1555 24 -47 25 -51
34 -34 75 62 148 46 241 -52 301 -34 22 -124 33 -169 21z"/>
<path d="M1435 1557 c-63 -30 -76 -46 -83 -102 -4 -41 -7 -45 -32 -45 -15 0
-44 7 -63 15 -61 25 -104 20 -143 -19 l-34 -34 -2 -109 c-3 -168 -4 -183 -17
-196 -9 -9 -89 -13 -276 -15 -248 -3 -267 -2 -292 16 -88 60 -197 52 -275 -20
-81 -77 -87 -209 -12 -296 70 -82 200 -97 289 -33 l46 33 245 -7 c241 -7 246
-8 275 -32 25 -21 28 -30 23 -61 -3 -21 -1 -90 4 -155 8 -103 12 -120 33 -143
22 -23 30 -26 85 -22 43 3 68 10 89 26 15 12 35 22 45 22 27 0 50 -34 50 -74
0 -33 4 -39 38 -53 53 -22 169 -20 226 5 49 22 70 52 80 118 6 34 2 50 -29
110 -43 83 -41 105 15 128 37 14 187 16 1575 16 1652 0 1592 -2 1735 51 79 29
182 92 219 134 45 52 41 78 -21 136 -76 74 -191 131 -338 171 l-125 33 -1505
5 c-1434 5 -1507 6 -1539 23 -37 21 -38 33 -6 117 42 113 26 189 -53 244 -60
42 -154 48 -227 13z"/>
</g>
</svg>
