<?xml version="1.0" standalone="no"?>
<!--<!DOCTYPE svg PUBLIC "-//W3C//DTD SVG 20010904//EN" "http://www.w3.org/TR/2001/REC-SVG-20010904/DTD/svg10.dtd">-->
<svg version="1.0" xmlns="http://www.w3.org/2000/svg"
 width="600.000000pt" height="600.000000pt" viewBox="0 0 600.000000 600.000000"
 preserveAspectRatio="xMidYMid meet">

<g transform="translate(0.000000,600.000000) scale(0.100000,-0.100000)"
fill="#000000" stroke="none">
<path d="M2790 5737 c-118 -34 -211 -111 -262 -215 -30 -62 -33 -74 -33 -172
0 -93 3 -112 26 -161 15 -31 44 -75 64 -98 l38 -42 -9 -463 -9 -463 -24 -34
c-47 -69 -43 -68 -323 -74 -139 -3 -270 -10 -291 -16 -49 -13 -103 -61 -118
-106 -24 -73 4 -215 50 -257 31 -28 45 -91 30 -128 -16 -38 -32 -46 -122 -54
-73 -6 -77 -8 -90 -38 -21 -44 -29 -72 -42 -150 -21 -124 22 -321 83 -378 37
-35 65 -48 146 -68 66 -17 73 -17 133 0 34 9 100 40 147 67 92 56 118 58 156
17 35 -37 40 -137 28 -549 -14 -474 -1 -856 37 -1083 48 -289 155 -537 298
-689 114 -120 168 -120 279 -4 139 146 228 310 297 551 27 97 78 325 79 360 1
8 4 33 7 55 20 133 32 400 40 870 3 149 7 295 9 325 7 93 44 159 89 160 10 0
49 -13 87 -29 86 -37 253 -74 294 -66 89 18 126 37 175 90 60 67 89 124 102
206 20 122 -23 286 -97 367 l-42 47 -86 4 -85 3 -7 35 c-7 38 7 95 37 155 57
111 16 248 -90 300 -44 22 -59 23 -297 26 l-252 3 -23 25 c-22 24 -23 33 -32
292 -5 147 -8 368 -8 490 l2 224 33 46 c53 76 71 135 71 237 0 80 -4 97 -32
157 -65 139 -193 226 -341 234 -46 2 -95 -1 -122 -9z"/>
</g>
</svg>
