<?xml version="1.0" standalone="no"?>
<!DOCTYPE svg PUBLIC "-//W3C//DTD SVG 20010904//EN" "http://www.w3.org/TR/2001/REC-SVG-20010904/DTD/svg10.dtd">
<svg version="1.0" xmlns="http://www.w3.org/2000/svg"
 width="2440.000000pt" height="1920.000000pt" viewBox="0 0 2440.000000 1920.000000"
 preserveAspectRatio="xMidYMid meet">

<g transform="translate(0.000000,1920.000000) scale(0.100000,-0.100000)"
fill="#000000" stroke="none">
<path d="M2030 14272 c-168 -55 -316 -183 -392 -338 l-43 -89 0 -175 c0 -169
1 -177 27 -232 32 -69 79 -138 131 -195 l38 -41 -10 -569 c-6 -312 -14 -641
-17 -730 l-6 -162 -44 -60 c-63 -86 -72 -88 -478 -101 -439 -14 -485 -19 -552
-65 -100 -69 -134 -158 -115 -300 14 -100 42 -175 84 -227 79 -99 76 -229 -6
-263 -18 -7 -77 -18 -131 -24 -54 -6 -106 -16 -116 -21 -24 -13 -58 -95 -80
-198 -52 -235 4 -556 117 -669 51 -52 96 -73 213 -103 147 -38 248 -14 462
107 123 69 169 77 216 38 22 -18 38 -45 49 -83 20 -64 21 -147 13 -1237 -5
-610 1 -773 36 -1085 61 -544 260 -1031 526 -1286 77 -74 132 -104 191 -104
63 0 149 60 249 174 249 285 378 575 498 1112 85 383 100 580 125 1606 9 351
20 661 25 689 20 105 76 189 126 189 13 0 72 -18 131 -41 126 -48 302 -94 394
-104 129 -14 249 35 349 142 162 171 208 395 135 648 -33 114 -73 189 -141
263 l-53 59 -131 5 c-71 3 -133 8 -137 11 -3 4 -6 40 -6 79 -1 64 5 88 47 193
46 113 48 123 44 200 -6 138 -71 240 -187 293 -52 24 -71 26 -261 33 -113 4
-291 8 -396 8 l-190 1 -28 29 c-15 16 -32 46 -36 67 -16 70 -31 549 -33 1039
l-2 480 56 82 c84 122 104 194 104 369 l0 141 -53 106 c-81 164 -199 271 -362
328 -91 32 -298 38 -380 11z"/>
<path d="M3392 13740 c-187 -44 -193 -317 -8 -364 41 -11 54 -23 176 -176 117
-146 150 -194 150 -218 0 -4 -48 -53 -107 -109 -99 -94 -107 -104 -107 -139 0
-30 7 -43 37 -69 21 -18 51 -35 67 -38 16 -4 34 -16 40 -27 9 -17 6 -27 -20
-60 l-32 -40 22 -45 c26 -53 109 -131 150 -140 64 -14 146 48 165 127 4 14 16
34 26 44 19 17 21 17 47 -3 15 -11 87 -93 160 -184 252 -312 366 -421 512
-492 74 -36 94 -41 154 -41 65 -1 71 1 84 24 22 41 10 190 -23 280 -58 158
-115 250 -301 486 -182 230 -184 233 -184 263 0 25 6 31 48 46 116 43 162 90
162 167 0 77 -88 179 -166 194 -28 5 -42 2 -66 -16 -39 -28 -57 -19 -79 39
-17 48 -55 89 -84 91 -49 5 -69 -4 -157 -75 -51 -41 -100 -75 -110 -75 -17 0
-108 97 -246 263 -63 75 -82 104 -82 128 0 36 -13 64 -49 102 -46 51 -114 72
-179 57z"/>
<path d="M16566 12523 c9 -86 24 -402 24 -514 l0 -120 -907 4 c-777 4 -920 6
-993 20 -46 9 -86 14 -88 12 -9 -9 22 -195 32 -195 6 0 43 8 81 17 62 15 171
17 973 20 l902 4 0 -356 0 -356 -702 4 c-603 3 -714 6 -777 20 -41 9 -77 15
-79 13 -2 -3 2 -46 9 -97 l12 -91 61 6 c34 3 106 10 161 16 60 6 788 10 1831
10 1527 0 1733 2 1744 15 10 12 10 19 -1 34 -26 35 -479 401 -498 401 -3 0
-80 -74 -171 -165 l-165 -165 -532 0 -533 0 0 355 0 355 1100 0 c1092 0 1099
0 1110 20 8 15 8 25 -2 39 -17 24 -243 214 -397 335 l-125 97 -59 -58 c-32
-32 -111 -115 -174 -185 l-116 -128 -668 0 -669 0 0 208 0 207 78 23 c117 36
171 76 156 117 -16 40 -107 62 -392 95 -245 27 -231 28 -226 -17z"/>
<path d="M6050 12453 c-89 -193 -284 -506 -469 -753 -154 -207 -281 -352 -480
-551 -199 -199 -314 -299 -521 -454 -63 -48 -117 -88 -119 -90 -3 -3 9 -22 45
-73 2 -4 242 128 350 193 99 60 250 163 331 226 35 27 65 49 68 49 8 0 5
-1508 -5 -1755 -5 -133 -4 -237 1 -246 15 -29 60 -37 155 -28 140 14 166 20
191 45 20 20 23 33 23 99 l0 75 1300 0 1300 0 0 -78 c0 -56 5 -84 17 -101 16
-23 19 -24 113 -17 120 7 197 22 227 41 28 19 27 -16 12 675 -7 295 -8 634 -4
813 l7 306 72 40 c39 21 83 51 99 66 50 50 37 72 -96 168 -97 71 -270 177
-285 177 -4 -1 -47 -50 -95 -110 l-88 -110 -612 0 -612 0 130 122 c72 66 211
204 310 305 123 126 187 184 201 183 12 0 61 7 110 15 227 40 231 86 21 258
-207 171 -289 229 -302 215 -6 -7 -58 -66 -114 -130 l-103 -118 -523 0 -524 0
81 107 c44 58 96 130 116 160 19 29 45 55 56 58 129 28 161 37 191 49 41 17
46 45 14 75 -25 23 -156 74 -349 135 -215 67 -188 72 -240 -41z m1158 -710
c-77 -179 -178 -367 -277 -515 l-112 -168 -617 0 -617 1 -59 55 -60 55 30 28
c16 15 89 83 162 151 73 67 198 194 279 281 l146 159 573 0 573 0 -21 -47z
m-478 -1163 l0 -360 -555 0 -555 0 0 360 0 360 555 0 555 0 0 -360z m1490 0
l0 -360 -575 0 -575 0 0 360 0 360 575 0 575 0 0 -360z m-1490 -875 l0 -385
-555 0 -555 0 0 385 0 385 555 0 555 0 0 -385z m1490 0 l0 -385 -575 0 -575 0
0 385 0 385 575 0 575 0 0 -385z"/>
<path d="M11195 12286 c-22 -7 -53 -19 -68 -28 l-29 -15 66 -17 c81 -22 190
-73 233 -110 72 -61 90 -162 54 -304 -23 -89 -79 -232 -129 -332 l-37 -75
-160 -28 c-141 -26 -186 -29 -385 -30 -190 -2 -235 1 -290 16 -93 26 -191 77
-300 156 l-95 69 -27 -26 -27 -25 31 -41 c54 -70 190 -199 252 -240 169 -112
436 -152 740 -111 61 8 111 13 113 11 2 -1 -49 -79 -113 -172 -303 -439 -503
-664 -839 -941 -66 -54 -132 -113 -147 -131 -33 -40 -43 -106 -29 -207 19
-134 81 -215 155 -201 48 9 69 28 170 154 273 341 501 543 761 672 156 78 250
103 380 104 82 1 108 -3 146 -20 133 -62 197 -195 214 -450 l7 -100 -64 -39
c-271 -166 -485 -326 -626 -467 -128 -129 -210 -237 -267 -353 -56 -112 -75
-183 -82 -305 -15 -270 104 -457 372 -586 243 -117 536 -159 1100 -158 562 0
970 45 1061 116 102 81 35 222 -148 313 -113 55 -174 58 -348 12 -173 -46
-357 -81 -540 -104 -186 -22 -678 -25 -815 -4 -117 18 -241 54 -316 92 -354
178 -245 613 242 961 83 59 303 194 387 237 l43 22 -6 -138 c-3 -76 -11 -187
-16 -248 -6 -60 -13 -157 -16 -215 -5 -99 -4 -107 18 -139 50 -71 161 -95 230
-48 87 59 102 140 105 607 l3 355 143 67 c197 92 470 205 738 303 210 78 328
116 559 180 51 14 106 35 122 46 51 36 60 127 22 217 -61 146 -270 336 -445
404 -62 25 -177 29 -223 9 l-30 -13 58 -29 c120 -61 201 -171 183 -246 -11
-44 -101 -122 -226 -196 -111 -65 -920 -477 -937 -477 -5 0 -15 27 -21 59 -33
157 -165 331 -303 398 -217 107 -484 81 -818 -78 -68 -33 -125 -58 -127 -57
-1 2 121 188 271 414 l273 410 159 33 c315 66 598 141 911 242 257 84 330 132
319 212 -12 87 -119 144 -302 162 -81 8 -106 -1 -208 -79 -138 -104 -274 -165
-546 -248 -75 -22 -142 -43 -149 -45 -17 -7 111 193 241 375 124 173 135 203
95 262 -45 67 -210 143 -393 181 -104 22 -269 24 -330 5z"/>
<path d="M22157 12075 c-15 -8 -47 -29 -70 -48 -23 -19 -60 -44 -82 -55 -107
-54 -621 -197 -945 -263 -208 -43 -312 -45 -393 -7 -85 40 -157 119 -212 231
-25 51 -45 98 -45 105 0 25 -18 11 -35 -28 -41 -90 -9 -248 82 -405 113 -197
229 -296 347 -296 60 0 116 20 436 154 383 161 926 365 938 352 11 -11 -23
-62 -140 -213 -272 -348 -499 -618 -942 -1117 -501 -566 -750 -826 -917 -958
-54 -43 -110 -96 -128 -123 -27 -41 -31 -56 -31 -113 0 -83 18 -151 61 -230
38 -72 70 -101 112 -101 48 0 91 35 189 153 124 150 222 252 347 359 308 267
637 455 966 555 236 71 535 72 761 2 102 -32 156 -62 229 -130 162 -152 234
-357 222 -634 -17 -384 -205 -698 -529 -883 -109 -62 -99 -64 -153 30 -183
316 -456 486 -810 505 -341 18 -602 -158 -622 -419 -23 -303 241 -514 698
-559 345 -33 766 44 1069 196 215 108 433 294 550 469 218 326 261 750 110
1073 -266 568 -1049 737 -1857 402 -166 -69 -494 -240 -595 -310 -62 -44 -45
-12 43 79 52 53 223 234 379 402 366 393 1134 1163 1220 1222 36 25 94 61 130
81 95 52 114 75 108 132 -7 61 -39 104 -173 233 -154 150 -246 195 -318 157z
m-752 -3340 c205 -43 389 -210 485 -441 17 -42 29 -81 27 -88 -7 -18 -167 -47
-297 -53 -319 -16 -577 72 -649 221 -27 55 -28 155 -2 211 60 134 232 193 436
150z"/>
<path d="M14986 10698 c-2 -7 -9 -47 -16 -88 -47 -285 -163 -478 -390 -644
-48 -36 -97 -77 -109 -92 -28 -35 -28 -100 0 -190 26 -85 44 -121 77 -156 68
-73 200 1 317 177 103 155 161 313 186 510 l11 95 1745 0 1744 0 -7 -22 c-17
-56 -161 -324 -234 -436 l-80 -123 27 -24 28 -23 140 96 c162 110 258 182 405
301 l105 85 133 27 c140 29 182 47 182 78 0 11 -32 49 -72 86 -87 81 -366 305
-379 305 -9 0 -36 -23 -183 -157 l-79 -73 -1734 0 -1733 0 0 118 c0 152 -3
162 -46 162 -19 0 -36 -6 -38 -12z"/>
<path d="M15934 9767 c-2 -393 -61 -689 -195 -976 -191 -407 -522 -682 -1126
-936 l-162 -68 15 -36 c8 -19 16 -37 18 -39 9 -8 344 85 466 130 296 109 621
294 802 456 206 183 360 410 446 653 55 157 100 390 125 654 l12 128 70 29
c134 55 160 114 62 143 -52 15 -474 85 -512 85 -19 0 -20 -7 -21 -223z"/>
<path d="M17077 9075 c2 -1020 0 -989 68 -1064 86 -95 175 -105 925 -105 701
-1 964 15 1061 65 71 36 102 104 79 174 -14 41 -46 65 -133 97 -32 12 -65 31
-73 43 -12 19 -10 75 16 435 17 228 30 427 30 442 0 26 -2 28 -45 28 -25 0
-45 -2 -45 -3 0 -12 -117 -453 -146 -552 -48 -159 -131 -369 -156 -392 -25
-23 -165 -31 -543 -32 -304 -1 -584 13 -627 30 -19 8 -31 23 -38 48 -7 24 -10
272 -8 744 l3 709 76 29 c149 58 160 116 29 153 -56 16 -280 50 -405 62 l-70
6 2 -917z"/>
<path d="M7028 8902 l-26 -17 35 -60 c20 -33 69 -112 108 -175 40 -63 91 -152
113 -196 56 -110 153 -341 185 -439 40 -118 59 -145 103 -145 19 0 44 5 54 10
30 16 65 86 99 195 61 197 39 258 -163 461 -72 71 -169 162 -216 201 -91 75
-242 183 -256 183 -5 0 -21 -8 -36 -18z"/>
<path d="M5983 8872 l-22 -17 68 -202 c79 -232 109 -349 157 -593 35 -182 52
-222 93 -228 80 -12 198 128 237 278 28 112 10 178 -91 330 -105 158 -371 451
-410 450 -5 0 -20 -8 -32 -18z"/>
<path d="M8107 8858 c-14 -22 -11 -27 107 -148 237 -244 412 -483 537 -731 82
-164 102 -189 156 -189 52 0 78 21 113 89 96 191 75 355 -64 495 -61 62 -269
208 -464 325 -110 66 -336 181 -357 181 -7 0 -19 -10 -28 -22z"/>
<path d="M5343 8842 c-53 -153 -117 -252 -247 -385 -102 -104 -206 -175 -319
-216 -157 -59 -186 -84 -195 -169 -9 -98 60 -252 129 -288 89 -45 277 65 419
245 121 154 194 300 245 495 29 108 59 307 48 316 -5 4 -23 10 -41 14 -26 4
-34 2 -39 -12z"/>
</g>
</svg>
